<svg width="22" height="22" viewBox="0 0 22 22" fill="none" xmlns="http://www.w3.org/2000/svg">
<path d="M21 19.75V9.125C21 8.73155 20.8148 8.36107 20.5 8.125L11.75 1.5625C11.3056 1.22917 10.6944 1.22917 10.25 1.5625L1.5 8.125C1.18524 8.36107 1 8.73155 1 9.125V19.75C1 20.4404 1.55964 21 2.25 21H5.22746C5.70092 21 6.13375 20.7325 6.34549 20.309L8.15451 16.691C8.36625 16.2675 8.79908 16 9.27254 16H11H12.7275C13.2009 16 13.6338 16.2675 13.8455 16.691L15.6545 20.309C15.8662 20.7325 16.2991 21 16.7725 21H19.75C20.4404 21 21 20.4404 21 19.75Z" stroke="white"/>
</svg>
