<svg width="72" height="46" viewBox="0 0 72 46" fill="none" xmlns="http://www.w3.org/2000/svg">
<path d="M0 0H64C68.4183 0 72 3.58172 72 8V38C72 42.4183 68.4183 46 64 46H8C3.58172 46 0 42.4183 0 38V0Z" fill="#FF1935"/>
<path d="M24 11H40C44.4183 11 48 14.5817 48 19V27C48 31.4183 44.4183 35 40 35H32C27.5817 35 24 31.4183 24 27V11Z" fill="#FF1935"/>
<path d="M30.6667 28.3333C32.1315 29.97 34.2603 31 36.6296 31C41.0479 31 44.6296 27.4183 44.6296 23C44.6296 18.5817 41.0479 15 36.6296 15C32.2113 15 28.6296 18.5817 28.6296 23C28.6296 25.0489 29.3999 26.918 30.6667 28.3333ZM30.6667 28.3333L28.8333 30.1667L27 32" stroke="white" stroke-linecap="round"/>
</svg>
